<svg id="Layer_1" data-name="Layer 1" xmlns="http://www.w3.org/2000/svg" viewBox="0 0 99.96 83.81"><title>icon-strong</title><path d="M47.29,97.45a40.44,40.44,0,0,1-6.94.72A59.54,59.54,0,0,1,19,94.52c-3.08-1.13-6.85-2.43-9.55-4.34-13.09-9.26,1.66-34.64,8.27-44.44,5-7.41,10.4-14.53,15.48-21.89,2.34-3.38,5.4-6.56,9.87-7.29a149.59,149.59,0,0,1,18.15-2.19,4.77,4.77,0,0,1,4,2c1.8,2.28,3.4,4.73,5,7.16,1,1.54.9,3.2-.81,4-4.3,2-8.54,4.24-13.58,3.89-2.81-.2-5.57-.6-8.34-1.06-2.16-.37-4.53-.64-5.66,1.78-4.67,10-8.73,20.26-7.13,32.05,8.21-7.33,17.34-9.53,27.64-4a3.13,3.13,0,0,0-1.91-2.94c-1.67-1-1.5-2-.32-3.25a47.7,47.7,0,0,1,5.08-5.17C76,40.1,93.4,44.24,100.91,55.45c8.85,13.21-1.53,32.15-16.71,34-5.1.62-10.25.08-15.32,1.53C61.66,93.09,54.66,96.09,47.29,97.45Zm21.6-33.88.35.13c0-.1.12-.27.09-.3a1,1,0,0,0-.33-.13Z" transform="translate(-4.21 -14.37)" style="fill:#e5e5e4"/><path d="M68.89,63.57l.11-.3a1,1,0,0,1,.33.13l-.09.3Z" transform="translate(-4.21 -14.37)" style="fill:#fff"/></svg>