<svg xmlns="http://www.w3.org/2000/svg" width="218.818" height="33.971" viewBox="0 0 218.818 33.971"><g transform="translate(1009.104 -1252.816)"><path d="M-791.185,1257.856c-15.238,8.167-28.675,11.859-49.473,14.158q-9.02,1-18.04,1.634a500.063,500.063,0,0,1-90.7-1.855c-18.686-2.053-37.414-4.415-54.659-12.851-.355-.173-.924.073-2.2.368-.247.057-.51.116-.813.174a2.9,2.9,0,0,1,.284.29,7.506,7.506,0,0,0-2.326,5.422v14.059a7.554,7.554,0,0,0,7.532,7.532H-834.23c1.513,0,6.841-.34,8.025-1.115h0a38.887,38.887,0,0,0,16.539-6.883c8.844-6.587,6.928-4.76,15.548-12.244C-791.76,1264.5-788.757,1262.236-791.185,1257.856Zm-71.4,27.719c.153,0,.306-.015.459-.019,1.031-.028,2.136-.013,3.294.028C-861.109,1285.578-862.554,1285.574-862.584,1285.575Z" fill="#e5e5e5"/><path d="M-978.108,1257.664h-23.116l-.249,1.56c10.214,2.584,20.311,5.856,30.664,7.63a449.458,449.458,0,0,0,112.111,4.789c3.944-.316,7.889-.665,11.833-1.078,14.624-1.531,29-5.559,43.42-8.77,3.142-.7,5.976-2.783,8.951-4.229l-.47-1.24H-821.43l-.111,1.127,4.505,2.867c-2.5-.117-4.578-1.646-6.671-1.668-2.151-.022-4.317,1.426-6.476,2.231l-.243-.589,5.352-3.8L-842,1255.313l6.6,5.655c-2.622-.642-4.412-2.561-6.607-3.341-1.968-.7-4.382-.147-7.671-.147l4.915-2.249c-9.14-2.8-14.2-3.008-22-1.435-4.336.874-8.677,1.751-13.031,2.53H-892.5l-.111,1.127,4.506,2.867c-2.5-.117-4.578-1.646-6.671-1.668-2.151-.022-4.317,1.426-6.476,2.231l-.243-.589,5.352-3.8-16.925-1.185,6.6,5.655c-2.623-.642-4.412-2.561-6.607-3.341-1.968-.7-4.382-.147-7.671-.147l4.915-2.249c-9.14-2.8-14.257-2.4-22-1.435-6.936.866-37.177,2.748-44.095,3.708-.263.037-.525.071-.787.107" fill="#e5e5e5"/></g></svg>