<svg id="Layer_1" data-name="Layer 1" xmlns="http://www.w3.org/2000/svg" viewBox="0 0 141.76 141.4"><title>icon-features</title><path d="M6.54,71.24a48.16,48.16,0,0,1,6.3-15.52c8.83-13.8,24-24.18,39.9-28,14.81-3.59,28.86-1.27,42.11,6.18,3.68,2.06,2.21,5,1,7.6-.69,1.42-2.44,2.28-3.38,3.63C89.73,49,87,48.6,82.85,46.78,67.25,40,52.5,42.26,39,52.51,28.13,60.73,22.78,72.14,22.08,85.32c-.54,10.11,2.93,19.59,9.31,27.62,8.86,11.14,20.44,17.43,34.83,17.08,24-.58,43.23-20.51,42.74-42.81-.17-7.62-1.18-14.83-5-21.48a3.77,3.77,0,0,1-.76-1.76c.21-3.26,10-9.66,13.16-8.85,1.42.37,1.74,1.46,2.29,2.41C130,76.92,128,104,114.24,122.24,85.62,160.2,28.35,152,10,109A63.7,63.7,0,0,1,6.54,71.24Z" transform="translate(-5.11 -5.1)" style="fill:#e5e5e5"/><path d="M146.87,30.1c-4.89,4.72-10,9.26-14.62,14.23-3.89,4.18-8.14,6.74-14,5.76-5.59-.93-9.56,1.28-13.46,5.39C94.15,66.69,83,77.45,72.08,88.4c-1.78,1.78-3.56,3.69-6.27,3.6a5.8,5.8,0,0,1-5.15-3.3c-1.47-2.7-.63-5,1.09-6.84,3.69-4,7.63-7.8,11.49-11.66,8.93-9,17.82-17.94,26.87-26.77,2.33-2.27,2-4.94,1.67-7.43-1-7.42,1.46-12.95,7.23-17.74,4.7-3.9,8.6-8.74,12.86-13.16h2a5.36,5.36,0,0,1,2.06,4.66c-.2,4,.14,7.94-.12,11.88-.22,3.42.91,4.51,4.42,4.57,5.54.09,11.2-1.23,16.64.89Z" transform="translate(-5.11 -5.1)" style="fill:#e5e5e5"/><path d="M5.87,99.1q2,1.5,0,3Z" transform="translate(-5.11 -5.1)" style="fill:#e5e5e5"/><path d="M66.27,54.13A26,26,0,0,1,77.6,55.81c2.63,1,2.31,1.87.72,3.31C73.06,63.91,69,69.8,61,71.45c-8.21,1.68-12.48,10-11,18.11,1.25,7.12,9.14,12.79,17.42,12.54,7.13-.23,13.76-6.71,14.42-14.57A8,8,0,0,1,84.47,82c2.18-2,4.25-4.22,6.38-6.34,4.44-4.43,5-4.32,6.57,1.61a33.25,33.25,0,0,1-24.24,41.28c-23,5.47-44-15.07-39.64-38.22C36.44,65,50.85,52.55,66.27,54.13Z" transform="translate(-5.11 -5.1)" style="fill:#e5e5e5"/></svg>