<svg id="Layer_1" data-name="Layer 1" xmlns="http://www.w3.org/2000/svg" viewBox="0 0 37.94 37.62"><title>logo-favicon</title><path d="M37.23,25.28A15.37,15.37,0,0,0,6.74,22.55,11.86,11.86,0,0,1,9,19.33,13.11,13.11,0,1,1,19.61,40.18a13.3,13.3,0,0,1-2-.15,15.12,15.12,0,0,0,3.89.59,18.88,18.88,0,0,0,7.07-1.52A15.31,15.31,0,0,0,37.23,25.28Z" transform="translate(-2 -3)" style="fill:#1babaa"/><path d="M32.73,27.08A13.11,13.11,0,0,0,9,19.34a11.69,11.69,0,1,1,8.25,20,11.81,11.81,0,0,1-2.16-.2,16,16,0,0,0,2.47,1,13.4,13.4,0,0,0,2,.15A13.13,13.13,0,0,0,32.73,27.08Z" transform="translate(-2 -3)" style="fill:#0c7c79"/><path d="M21.12,3A18.82,18.82,0,0,0,2.31,21.18a1.9,1.9,0,0,1,.26-.37A11.3,11.3,0,0,1,5,18c0-.05,0-.1,0-.15a2.62,2.62,0,0,1,2.62-2.62,2.25,2.25,0,0,1,.58.07C10.48,11.35,15.37,8.64,21,8.64a15.45,15.45,0,0,1,11.45,4.73,8.21,8.21,0,0,0-2-.79,15.36,15.36,0,0,1-2,26.53A18.82,18.82,0,0,0,21.12,3Z" transform="translate(-2 -3)" style="fill:#76ccd0"/><path d="M16.18,19.51a2.29,2.29,0,0,1,.17.87,2.46,2.46,0,0,1-2.49,2.42,2.53,2.53,0,0,1-1.73-.68,3.46,3.46,0,0,1,.22.31,2.62,2.62,0,0,0,4.32-2,2.44,2.44,0,0,0-.06-.55A2,2,0,0,1,16.18,19.51Z" transform="translate(-2 -3)" style="fill:#e7f5f4"/><path d="M10.18,26A2.46,2.46,0,0,1,7.69,23.7a3.34,3.34,0,0,1-1.56.74,4.08,4.08,0,0,1-.71.06,3.2,3.2,0,0,1-2.69-1.29h0a2,2,0,0,1-.35-1.12,2.12,2.12,0,0,1,0-.44,2.15,2.15,0,0,1,.24-.59,1.66,1.66,0,0,1,.25-.34,3.28,3.28,0,0,1,.2-.31A1.8,1.8,0,0,1,3,19.67a1.92,1.92,0,0,1,1.29-1.79,1.79,1.79,0,0,1,0-.23,1.94,1.94,0,0,1,2-1.91,1.94,1.94,0,0,1,2-1.91,1.75,1.75,0,0,1,.4,0,2.62,2.62,0,0,1,2.22-1.2h.06a2.65,2.65,0,0,1,3.26-1.93A16.37,16.37,0,0,1,20.5,9.47a15.6,15.6,0,0,1,9.34,3c.23,0,.45.08.67.14a8.38,8.38,0,0,1,2,.79A15.47,15.47,0,0,0,21,8.63,16.69,16.69,0,0,0,14.31,10a2.84,2.84,0,0,0-.72-.1A2.75,2.75,0,0,0,10.9,12.1h-.06a2.74,2.74,0,0,0-2.33,1.3,2,2,0,0,0-.42,0A2.07,2.07,0,0,0,6,15.43,2.07,2.07,0,0,0,4,17.5a2.11,2.11,0,0,0,0,.25,2.06,2.06,0,0,0-1.35,1.94,2.15,2.15,0,0,0,.16.8l-.21.34a3.09,3.09,0,0,0-.26.37,2.39,2.39,0,0,0-.26.64,2.09,2.09,0,0,0,0,.46,2.23,2.23,0,0,0,.36,1.21h0a3.34,3.34,0,0,0,2.82,1.39,4.42,4.42,0,0,0,.74-.07A3.47,3.47,0,0,0,7.57,24,2.62,2.62,0,0,0,12.8,24a2.58,2.58,0,0,0-.31-1.23,2.4,2.4,0,0,1,.18.89A2.45,2.45,0,0,1,10.18,26Z" transform="translate(-2 -3)" style="fill:#e7f5f4"/><path d="M20.51,18.54a2.48,2.48,0,0,1-2.42,1.83h-.24a2.67,2.67,0,0,0,.64.08A2.61,2.61,0,0,0,21,18.5a2,2,0,0,1-.43,0A.08.08,0,0,1,20.51,18.54Z" transform="translate(-2 -3)" style="fill:#e7f5f4"/><path d="M23.93,14.42a2.06,2.06,0,0,1-1.22,1.86,1.34,1.34,0,0,1,0,.2,2.07,2.07,0,0,1-1.51,2,2.23,2.23,0,0,0,2.13-2.23,1.7,1.7,0,0,0,0-.22,2.23,2.23,0,0,0,1.28-2,2.33,2.33,0,0,0-.07-.53c-.24.1-.48.21-.71.33A2.43,2.43,0,0,1,23.93,14.42Z" transform="translate(-2 -3)" style="fill:#e7f5f4"/><path d="M21,18.46s0,0,0,.05l.19-.05H21Z" transform="translate(-2 -3)" style="fill:#d4edf2"/><path d="M28.45,12.31a9.22,9.22,0,0,1,1.4.12,15.53,15.53,0,0,0-9.34-3,16.37,16.37,0,0,0-6.39,1.27,2.65,2.65,0,0,0-3.26,1.93H10.8a2.62,2.62,0,0,0-2.22,1.2,1.75,1.75,0,0,0-.4,0,1.94,1.94,0,0,0-2,1.91,1.94,1.94,0,0,0-2,1.91,1.79,1.79,0,0,0,0,.23A1.92,1.92,0,0,0,3,19.67a1.77,1.77,0,0,0,.15.73l-.2.31c-.09.11-.17.22-.25.34a1.88,1.88,0,0,0-.24.59,2.12,2.12,0,0,0-.05.44,2.06,2.06,0,0,0,.35,1.12h0A3.23,3.23,0,0,0,5.43,24.5a3.35,3.35,0,0,0,.71-.07,3.29,3.29,0,0,0,1.56-.74,2.49,2.49,0,0,0,5-.08,2.25,2.25,0,0,0-.18-.89,2.75,2.75,0,0,0-.26-.4l.11.1a2.18,2.18,0,0,0-.22-.31,2.53,2.53,0,0,0,1.73.68,2.45,2.45,0,0,0,2.49-2.42,2.29,2.29,0,0,0-.17-.87,2.19,2.19,0,0,0,.42.38c0-.13-.07-.26-.11-.39a2.64,2.64,0,0,0,1.37.86h.24a2.48,2.48,0,0,0,2.42-1.83h.08a2,2,0,0,0,.43,0s0,0,0,0h.18a2.08,2.08,0,0,0,1.51-2,1.34,1.34,0,0,0,0-.2,2.06,2.06,0,0,0,1.22-1.86,1.83,1.83,0,0,0-.1-.62c.23-.12.47-.23.71-.33l0-.15A8.33,8.33,0,0,1,28.45,12.31Z" transform="translate(-2 -3)" style="fill:#d1ecec"/></svg>